<svg width="42" height="43" fill="none" xmlns="http://www.w3.org/2000/svg"><g clip-path="url(#clip0_41_1257)"><path fill-rule="evenodd" clip-rule="evenodd" d="M36.75 12.313v17.062h-2.625V12.312h-5.25a3.937 3.937 0 01-3.938-3.937v-5.25H10.5A2.625 2.625 0 007.875 5.75v23.625H5.25V5.75A5.25 5.25 0 0110.5.5h14.438L36.75 12.313zm-17.952 25.43v-1.37a4.043 4.043 0 00-.307-1.682 2.26 2.26 0 00-.846-1.016 2.264 2.264 0 00-1.23-.339 2.278 2.278 0 00-1.237.341c-.374.248-.666.6-.84 1.014a4.043 4.043 0 00-.307 1.682v1.37c0 .672.105 1.234.307 1.683.174.414.466.767.84 1.016.373.224.801.339 1.236.33a2.29 2.29 0 001.231-.33 2.26 2.26 0 00.846-1.013 4.09 4.09 0 00.307-1.686zm2.108-1.354v1.347c0 .984-.179 1.837-.539 2.554a3.859 3.859 0 01-1.546 1.646c-.667.378-1.47.567-2.407.567A4.882 4.882 0 0114 41.936a3.84 3.84 0 01-1.546-1.646 5.646 5.646 0 01-.538-2.554v-1.347c0-.995.181-1.848.538-2.56a3.761 3.761 0 011.549-1.645c.674-.386 1.48-.578 2.415-.578.937 0 1.737.192 2.404.578a3.84 3.84 0 011.549 1.654c.357.71.535 1.561.535 2.551zM2.625 42.303V31.806h3.83c1.066 0 1.945.204 2.638.617.693.41 1.207 1.002 1.546 1.785.341.777.515 1.719.515 2.819 0 1.108-.171 2.058-.515 2.845-.344.79-.866 1.392-1.562 1.809-.693.415-1.567.622-2.622.622h-3.83zM6.179 33.5H4.7v7.106h1.478c.485 0 .908-.074 1.268-.215a2.1 2.1 0 00.876-.662c.231-.3.402-.667.515-1.108.126-.508.186-1.03.178-1.554 0-.787-.105-1.449-.31-1.976a2.336 2.336 0 00-.929-1.192c-.415-.268-.947-.4-1.601-.4h.005zm17.735 2.93c0-.652.089-1.208.27-1.662a2.28 2.28 0 01.79-1.045 2.136 2.136 0 011.247-.362c.394 0 .743.084 1.045.254.297.158.545.394.717.683.183.303.29.646.314 1h2.009v-.192a3.49 3.49 0 00-1.224-2.53 3.778 3.778 0 00-1.286-.714 4.82 4.82 0 00-1.59-.255c-.933 0-1.733.194-2.392.586a3.765 3.765 0 00-1.499 1.661c-.344.717-.517 1.575-.517 2.567v1.308c0 .995.17 1.848.51 2.562.34.711.842 1.26 1.498 1.646.656.378 1.457.567 2.4.567.768 0 1.456-.142 2.06-.43.604-.29 1.087-.683 1.446-1.193a3.334 3.334 0 00.594-1.769v-.2h-2.009a2.1 2.1 0 01-.307.956 1.835 1.835 0 01-.716.651c-.328.16-.689.239-1.053.231a2.217 2.217 0 01-1.255-.344 2.189 2.189 0 01-.782-1.031 4.464 4.464 0 01-.27-1.646v-1.3zm13.366-4.62h2.347l-3.347 5.265 3.292 5.23h-2.384l-2.23-3.715h-.093l-2.236 3.714h-2.263l3.255-5.29-3.224-5.207h2.447l2.184 3.777h.092l2.16-3.777v.002z" fill="#FF4848"/></g><defs><clipPath id="clip0_41_1257"><path fill="#fff" transform="translate(0 .5)" d="M0 0h42v42H0z"/></clipPath></defs></svg>