<svg width="32" height="32" fill="none" xmlns="http://www.w3.org/2000/svg"><g fill-rule="evenodd" clip-rule="evenodd" fill="#FF4848"><path d="M16 8.333a1 1 0 011 1v8a1 1 0 11-2 0v-8a1 1 0 011-1zm.682 13.589a1 1 0 01.075 1.412l-.014.015a1 1 0 11-1.486-1.338l.013-.015a1 1 0 011.412-.074z"/><path d="M16 3.667C9.187 3.667 3.665 9.188 3.665 16c0 6.811 5.522 12.333 12.333 12.333 6.812 0 12.334-5.521 12.334-12.333S22.81 3.667 15.999 3.667zM1.665 16c0-7.916 6.417-14.333 14.333-14.333S30.333 8.084 30.333 16s-6.418 14.333-14.334 14.333C8.083 30.333 1.666 23.916 1.666 16z"/></g></svg>