<svg width="130" height="18" fill="none" xmlns="http://www.w3.org/2000/svg"><path fill-rule="evenodd" clip-rule="evenodd" d="M7.884 2.003c.457-.92 1.773-.92 2.23 0l1.817 3.66 4.065.59c1.017.148 1.431 1.397.687 2.118l-2.938 2.845.694 4.02c.175 1.02-.898 1.782-1.805 1.308L9 14.644l-3.635 1.9c-.907.474-1.98-.288-1.804-1.309l.693-4.019-2.938-2.845c-.744-.72-.33-1.97.687-2.118l4.065-.59 1.817-3.66zm28 0c.457-.92 1.773-.92 2.23 0l1.817 3.66 4.065.59c1.017.148 1.431 1.397.688 2.118l-2.939 2.845.694 4.02c.175 1.02-.898 1.782-1.805 1.308L37 14.644l-3.635 1.9c-.907.474-1.98-.288-1.804-1.309l.693-4.019-2.939-2.845c-.743-.72-.329-1.97.688-2.118l4.065-.59 1.817-3.66zm28 0c.457-.92 1.773-.92 2.23 0l1.817 3.66 4.065.59c1.017.148 1.431 1.397.688 2.118l-2.939 2.845.694 4.02c.176 1.02-.898 1.782-1.805 1.308L65 14.644l-3.635 1.9c-.907.474-1.98-.288-1.804-1.309l.693-4.019-2.938-2.845c-.744-.72-.33-1.97.687-2.118l4.065-.59 1.817-3.66zm28 0c.457-.92 1.773-.92 2.23 0l1.817 3.66 4.065.59c1.017.148 1.431 1.397.688 2.118l-2.939 2.845.694 4.02c.176 1.02-.898 1.782-1.805 1.308L93 14.644l-3.635 1.9c-.907.474-1.98-.288-1.804-1.309l.693-4.019-2.939-2.845c-.743-.72-.329-1.97.688-2.118l4.065-.59 1.817-3.66zm28 0c.457-.92 1.773-.92 2.23 0l1.817 3.66 4.065.59c1.017.148 1.431 1.397.688 2.118l-2.939 2.845.694 4.02c.175 1.02-.898 1.782-1.805 1.308l-3.635-1.9-3.635 1.9c-.907.474-1.98-.288-1.804-1.309l.693-4.019-2.938-2.845c-.744-.72-.33-1.97.687-2.118l4.065-.59 1.817-3.66z" fill="#F5AF40"/></svg>