<svg width="76" height="104" fill="none" xmlns="http://www.w3.org/2000/svg"><path d="M5.486 64.303c-1.143-3.037-3.624-8.316-4.408-5.135-.98 3.975 7.51 16.73 11.429 7.951 3.918-8.78 10.612-33.462 8.979-31.309-1.633 2.154-7.02 25.677-4.572 26.505 2.45.828 12.245-22.364 11.919-24.848-.327-2.485-7.674 24.682-6.53 23.191 1.142-1.49 7.02-27.002-5.389-14.743-12.408 12.259-2.775 28.493 4.572 19.05 7.347-9.442 11.592-14.743 9.796-15.571-1.796-.828-8.817 12.921-2.45 9.774C35.2 56.02 62.63 23.55 64.589 9.636c1.96-13.915-5.224-8.614-8.163-.828-2.94 7.786-25.143 89.289-34.123 93.762-8.98 4.472 1.143-27.168 6.53-36.776 5.389-9.608 5.225-3.479 6.042-2.816.816.662 7.347-5.964 7.836-7.952.49-1.988-2.612-.828-3.265 1.325-.653 2.154 1.96 4.97 4.572 1.326 2.612-3.645 6.204-8.614 3.755-6.958-2.45 1.657-4.082 6.46 0 4.307 4.081-2.153 24-21.204 26.612-34.622 2.612-13.418-3.755-6.13-6.53.497-2.221 5.3-15.184 39.978-21.389 56.654" stroke="#003EDC"/></svg>