<svg width="228" height="57" fill="none" xmlns="http://www.w3.org/2000/svg"><path d="M71.729 30.85l8.835-11.752h2.988v18.208h-3.703v-11.65l-8.835 11.65h-2.988V19.098h3.703V30.85zm18.764-1.877h5.235v-5.22h3.6v13.553h-3.6V32.11h-5.235v5.195h-3.6V23.753h3.6v5.22zm22.896 3.189v5.144h-3.601v-5.144h-1.915l-2.783 5.144h-4.29l4.137-7.124-3.831-6.43h4.163l2.757 5.273h1.762v-5.272h3.601v5.272h1.762l2.758-5.272h4.136l-3.83 6.43 4.137 7.123h-4.265l-2.783-5.144h-1.915zm14.036-.308l6.23-8.101h3.09v13.553h-3.626v-7.844l-6.052 7.844h-3.243V23.753h3.601v8.1zm15.76-2.881h5.235v-5.22h3.6v13.553h-3.6V32.11h-5.235v5.195h-3.601V23.753h3.601v5.22zm15.287 2.881l6.23-8.101h3.09v13.553h-3.626v-7.844l-6.052 7.844h-3.243V23.753h3.601v8.1zm15.785-6.275a5.395 5.395 0 011.967-1.518c.8-.377 1.6-.574 2.4-.591a6.23 6.23 0 012.656.514c.817.343 1.498.926 2.043 1.749.442.6.766 1.303.97 2.109.204.806.306 1.654.306 2.546 0 1.114-.136 2.126-.408 3.034a5.43 5.43 0 01-1.328 2.315 5.197 5.197 0 01-1.941 1.337 6.421 6.421 0 01-2.298.438 8.26 8.26 0 01-1.124-.078 5.23 5.23 0 01-1.123-.231 5.457 5.457 0 01-1.124-.514 4.486 4.486 0 01-1.021-.9v7.175h-3.601V23.753h3.422l.204 1.826zm3.371 1.131a3.24 3.24 0 00-1.43.309 2.999 2.999 0 00-1.047.797 4.07 4.07 0 00-.689 1.183c-.154.446-.23.926-.23 1.44-.017 1.149.281 2.075.894 2.778.629.686 1.481 1.046 2.553 1.08.579 0 1.073-.094 1.481-.283.409-.189.741-.454.996-.797a3.52 3.52 0 00.613-1.209 4.81 4.81 0 00.23-1.517c0-.532-.077-1.029-.23-1.492a3.29 3.29 0 00-.638-1.209 2.765 2.765 0 00-1.022-.797c-.408-.188-.902-.283-1.481-.283zm12.788 5.144l6.231-8.101h3.09v13.553h-3.626v-7.844l-6.052 7.844h-3.243V23.753h3.6v8.1zm15.76-2.881h5.235v-5.22h3.601v13.553h-3.601V32.11h-5.235v5.195h-3.6V23.753h3.6v5.22zM228 23.753v3.137h-6.537v10.416h-3.601V23.753H228z" fill="#140A32"/><path d="M68.11 52.502v-6.81h.832v5.5l3.624-5.5h.88v6.81h-.832V47.05l-3.634 5.452h-.87zm6.813 0v-5.076h.813v2.225h2.524v-2.225h.813v5.076h-.813v-2.129h-2.524v2.129h-.813zm8.027 0v-2.187h-.842l-1.31 2.187h-.947l1.635-2.659-1.491-2.417h.87l1.33 2.196h.755v-2.196h.812v2.196h.756l1.33-2.196h.87l-1.492 2.417 1.635 2.659h-.947l-1.31-2.187h-.842v2.187h-.812zm5.22-2.235c.02.225.064.434.135.626.076.186.178.35.306.491.127.142.283.254.468.337.192.078.411.116.66.116.121 0 .245-.01.373-.029.134-.026.258-.064.373-.115.115-.058.217-.132.306-.222a.84.84 0 00.2-.327h.833a1.623 1.623 0 01-.297.635c-.133.18-.296.328-.487.443a2.155 2.155 0 01-.622.26 3.15 3.15 0 01-.698.077c-.402 0-.752-.064-1.052-.192a2.071 2.071 0 01-.736-.53 2.248 2.248 0 01-.44-.819 3.661 3.661 0 01-.144-1.05c0-.378.051-.725.153-1.04.109-.32.262-.597.46-.828.197-.231.44-.41.726-.54.287-.128.628-.192 1.023-.192.402 0 .75.08 1.043.24.293.162.529.373.707.637.179.256.303.536.373.838a2.844 2.844 0 01.087 1.01c0 .059-.004.116-.01.174h-3.74zm2.937-.713c-.013-.43-.147-.78-.402-1.05-.255-.269-.596-.404-1.023-.404-.236 0-.443.039-.622.116a1.273 1.273 0 00-.45.317 1.53 1.53 0 00-.286.472c-.07.174-.115.357-.134.55h2.917zm1.915 2.948v-5.076h.812v2.225h2.525v-2.225h.813v5.076h-.813v-2.129h-2.525v2.129h-.813zm6.066-2.235c.019.225.064.434.134.626.076.186.178.35.306.491.127.142.283.254.468.337.192.078.412.116.66.116a2.5 2.5 0 00.373-.029 1.69 1.69 0 00.373-.115 1.16 1.16 0 00.306-.222.866.866 0 00.201-.327h.832a1.62 1.62 0 01-.296.635c-.134.18-.297.328-.488.443a2.153 2.153 0 01-.622.26 3.18 3.18 0 01-.698.077c-.402 0-.752-.064-1.052-.192a2.071 2.071 0 01-.736-.53 2.251 2.251 0 01-.44-.819 3.665 3.665 0 01-.144-1.05c0-.378.052-.725.153-1.04a2.48 2.48 0 01.46-.828c.197-.231.44-.41.726-.54.287-.128.628-.192 1.024-.192.401 0 .749.08 1.042.24.293.162.529.373.708.637.178.256.302.536.373.838.076.301.108.58.095.837 0 .058-.003.116-.009.174 0 .058-.004.115-.01.173h-3.74zm2.936-.713c-.013-.43-.147-.78-.402-1.05-.255-.269-.596-.404-1.023-.404a1.56 1.56 0 00-.622.116 1.273 1.273 0 00-.45.317 1.532 1.532 0 00-.286.472 1.98 1.98 0 00-.134.55h2.917zm2.728 4.777h-.813v-6.905h.774l.039.78c.172-.276.404-.482.698-.616.299-.142.621-.215.966-.222.388 0 .717.068.984.202.275.129.501.312.679.55.185.23.322.507.412.828.089.314.134.655.134 1.02 0 .373-.045.716-.134 1.031a2.31 2.31 0 01-.412.819 1.964 1.964 0 01-.698.549c-.28.128-.615.192-1.004.192-.382 0-.707-.06-.975-.183a1.79 1.79 0 01-.65-.481v2.436zm1.558-2.494c.274 0 .504-.048.689-.144.191-.103.344-.238.459-.405.121-.173.207-.372.258-.597.057-.225.089-.466.096-.722a2.93 2.93 0 00-.086-.723 1.573 1.573 0 00-.259-.597 1.257 1.257 0 00-.478-.395 1.458 1.458 0 00-.698-.154c-.325 0-.605.09-.841.27a1.648 1.648 0 00-.536.664 1.68 1.68 0 00-.143.463 2.89 2.89 0 00-.039.481c0 .193.013.373.039.54.025.16.073.314.143.462.121.244.297.45.526.616.236.16.526.241.87.241zm3.363.665v-5.076h.813v2.225h2.524v-2.225h.813v5.076h-.813v-2.129h-2.524v2.129h-.813zm5.435-5.076h.832v1.936h.908c.287 0 .549.022.785.067.242.039.455.122.64.25.172.13.303.293.392.492.096.193.144.433.144.722a1.79 1.79 0 01-.163.722 1.446 1.446 0 01-.354.472 1.623 1.623 0 01-.65.318 3.197 3.197 0 01-.784.097h-1.75v-5.076zm4.399 5.076v-5.076h.813v5.076h-.813zm-3.299-.713c.242 0 .484-.003.727-.01.248-.013.462-.064.64-.154a.594.594 0 00.287-.26.91.91 0 00.124-.443c0-.199-.041-.356-.124-.472a.646.646 0 00-.306-.25 1.175 1.175 0 00-.411-.106 5.398 5.398 0 00-.45-.02h-.755v1.715h.268zm6.022-1.522c.019.225.063.434.134.626.076.186.178.35.306.491.127.142.283.254.468.337.191.078.411.116.66.116.121 0 .245-.01.373-.029a1.69 1.69 0 00.373-.115 1.16 1.16 0 00.306-.222.866.866 0 00.201-.327h.832a1.621 1.621 0 01-.297.635c-.134.18-.296.328-.487.443a2.165 2.165 0 01-.622.26 3.15 3.15 0 01-.698.077c-.402 0-.752-.064-1.052-.192a2.066 2.066 0 01-.736-.53 2.235 2.235 0 01-.44-.819 3.65 3.65 0 01-.144-1.05c0-.378.051-.725.153-1.04.109-.32.262-.597.459-.828.198-.231.44-.41.727-.54.287-.128.628-.192 1.023-.192.402 0 .749.08 1.043.24.293.162.529.373.707.637a2.4 2.4 0 01.373.838 2.822 2.822 0 01.086 1.01c0 .059-.003.116-.009.174h-3.739zm2.936-.713c-.013-.43-.147-.78-.402-1.05-.255-.269-.596-.404-1.023-.404-.236 0-.443.039-.622.116a1.275 1.275 0 00-.449.317 1.514 1.514 0 00-.287.472c-.07.174-.115.357-.134.55h2.917zm6.644 3.006c-.402 0-.749-.065-1.043-.193a1.929 1.929 0 01-.726-.54 2.326 2.326 0 01-.431-.818 3.552 3.552 0 01-.143-1.03c0-.36.051-.697.153-1.012.102-.321.252-.597.449-.828.198-.238.446-.424.746-.559.3-.141.663-.212 1.09-.212.255 0 .482.03.679.087.198.051.383.138.555.26.178.115.331.27.459.462.127.193.22.427.277.703h-.832c-.095-.282-.248-.485-.459-.607a1.328 1.328 0 00-.727-.173c-.274 0-.516.055-.726.164-.204.103-.37.24-.498.414-.121.173-.21.376-.267.607a2.763 2.763 0 00-.086.693c0 .25.028.488.086.713.063.225.156.424.277.597.127.167.29.302.488.405a1.6 1.6 0 00.707.144c.134 0 .265-.013.392-.039a1.29 1.29 0 00.364-.125.976.976 0 00.478-.626h.842a1.773 1.773 0 01-.278.684 1.763 1.763 0 01-.478.472 2.136 2.136 0 01-.631.27 2.93 2.93 0 01-.717.086zm3.765-2.293c.019.225.064.434.134.626.076.186.178.35.306.491.127.142.284.254.468.337.192.078.412.116.66.116a2.5 2.5 0 00.373-.029 1.69 1.69 0 00.373-.115 1.16 1.16 0 00.306-.222.866.866 0 00.201-.327h.832a1.62 1.62 0 01-.296.635c-.134.18-.297.328-.488.443a2.153 2.153 0 01-.622.26 3.18 3.18 0 01-.698.077c-.401 0-.752-.064-1.052-.192a2.075 2.075 0 01-.736-.53 2.25 2.25 0 01-.44-.819 3.651 3.651 0 01-.143-1.05c0-.378.051-.725.153-1.04.108-.32.261-.597.459-.828a2.05 2.05 0 01.726-.54c.287-.128.628-.192 1.024-.192.401 0 .749.08 1.042.24.293.162.529.373.708.637.178.256.302.536.373.838.076.301.108.58.095.837 0 .058-.003.116-.009.174 0 .058-.004.115-.01.173h-3.739zm2.936-.713c-.013-.43-.147-.78-.402-1.05-.255-.269-.596-.404-1.023-.404-.236 0-.443.039-.622.116a1.275 1.275 0 00-.449.317 1.533 1.533 0 00-.287.472c-.07.174-.115.357-.134.55h2.917zm5.635-2.128v.722h-1.731v4.354h-.813v-4.354h-1.731v-.722h4.275zm1.519 5.076h-.794v-5.076h.813v3.891c.045-.09.105-.186.182-.289.076-.11.137-.193.181-.25l2.439-3.352h.803v5.076h-.813V48.61a3.823 3.823 0 01-.334.5l-2.477 3.39zm8.274 0h-.794v-5.076h.813v3.891c.045-.09.105-.186.182-.289a6.15 6.15 0 01.182-.25l2.438-3.352h.803v5.076h-.812V48.61a3.823 3.823 0 01-.335.5l-2.477 3.39zm9.699-5.134c.402 0 .749.064 1.043.193.293.128.538.308.736.54.204.23.354.506.449.827.102.315.153.662.153 1.04 0 .38-.051.73-.153 1.05a2.053 2.053 0 01-1.195 1.348c-.3.13-.65.193-1.052.193s-.752-.064-1.052-.192a2.17 2.17 0 01-.746-.53 2.377 2.377 0 01-.449-.819 3.65 3.65 0 01-.144-1.05c0-.378.048-.725.144-1.04a2.37 2.37 0 01.449-.828 2.11 2.11 0 01.756-.54c.299-.128.653-.192 1.061-.192zm-.019 4.47c.274 0 .51-.05.708-.145.204-.097.369-.228.497-.395a1.63 1.63 0 00.287-.597c.064-.225.095-.47.095-.732 0-.257-.031-.498-.095-.723a1.536 1.536 0 00-.287-.597 1.291 1.291 0 00-.497-.404 1.604 1.604 0 00-.708-.145c-.274 0-.51.048-.708.145a1.394 1.394 0 00-.497.404 1.744 1.744 0 00-.287.597 2.93 2.93 0 00-.086.723c0 .263.029.507.086.732.064.224.16.423.287.597.134.167.3.298.497.395.198.096.434.144.708.144zm4.193-3.266c.096-.135.208-.247.335-.337a2.017 2.017 0 01.87-.376c.16-.032.313-.048.459-.048.345 0 .647.055.909.164.268.11.491.266.669.472.185.199.325.44.421.722.096.283.143.597.143.944s-.051.671-.153.973a2.2 2.2 0 01-.449.77c-.191.219-.43.392-.717.52a2.431 2.431 0 01-.976.183c-.42 0-.774-.073-1.061-.221a2.004 2.004 0 01-.698-.607 2.766 2.766 0 01-.383-.915 4.984 4.984 0 01-.134-1.04 6.493 6.493 0 01-.019-.616c.007-.315.022-.598.048-.848.025-.257.067-.504.124-.742.064-.244.15-.459.259-.645.172-.308.388-.536.65-.684.268-.147.574-.25.918-.308.108-.02.35-.054.727-.106.382-.058.644-.096.784-.115.121-.013.252-.03.392-.049.147-.025.29-.05.43-.077v.752a2.563 2.563 0 01-.354.086c-.14.02-.299.039-.478.058-.127.02-.261.039-.401.058a13 13 0 00-.421.048c-.14.013-.357.042-.65.087a1.352 1.352 0 00-.536.183c-.134.09-.252.208-.354.356a1.92 1.92 0 00-.268.655c-.051.25-.079.485-.086.703zm1.53 3.265c.236 0 .444-.045.622-.135.185-.09.338-.212.459-.366.128-.154.223-.334.287-.54a2.19 2.19 0 00.096-.654c0-.225-.035-.433-.106-.626a1.445 1.445 0 00-.277-.51 1.192 1.192 0 00-.44-.338 1.435 1.435 0 00-.631-.125 1.53 1.53 0 00-.612.135 1.3 1.3 0 00-.459.356 1.468 1.468 0 00-.287.52 2.102 2.102 0 00-.105.607c0 .225.029.44.086.645.064.2.156.376.277.53.121.154.271.276.45.366.185.09.398.135.64.135zm5.587-4.469c.402 0 .749.064 1.042.193.294.128.539.308.737.54.204.23.353.506.449.827.102.315.153.662.153 1.04 0 .38-.051.73-.153 1.05a2.18 2.18 0 01-.449.82 2.062 2.062 0 01-.746.529c-.3.128-.651.192-1.052.192-.402 0-.753-.064-1.052-.192a2.17 2.17 0 01-.746-.53 2.363 2.363 0 01-.45-.819 3.686 3.686 0 01-.143-1.05c0-.378.048-.725.143-1.04a2.35 2.35 0 01.45-.828c.204-.231.456-.41.755-.54.3-.128.654-.192 1.062-.192zm-.019 4.47c.274 0 .51-.05.707-.145.204-.097.37-.228.498-.395a1.63 1.63 0 00.287-.597c.063-.225.095-.47.095-.732 0-.257-.032-.498-.095-.723a1.536 1.536 0 00-.287-.597 1.294 1.294 0 00-.498-.404 1.597 1.597 0 00-.707-.145c-.274 0-.51.048-.708.145a1.386 1.386 0 00-.497.404 1.726 1.726 0 00-.287.597 2.93 2.93 0 00-.086.723c0 .263.029.507.086.732.064.224.159.423.287.597.134.167.299.298.497.395.198.096.434.144.708.144zm4.3 2.493h-.812v-6.905h.774l.038.78c.173-.276.405-.482.699-.616.299-.142.621-.215.965-.222.389 0 .718.068.985.202.275.129.501.312.679.55.185.23.322.507.412.828.089.314.134.655.134 1.02 0 .373-.045.716-.134 1.031a2.31 2.31 0 01-.412.819 1.964 1.964 0 01-.698.549c-.28.128-.615.192-1.004.192-.382 0-.707-.06-.975-.183a1.803 1.803 0 01-.651-.481v2.436zm1.559-2.494c.274 0 .504-.048.689-.144.191-.103.344-.238.459-.405.121-.173.207-.372.258-.597.057-.225.089-.466.096-.722a2.93 2.93 0 00-.086-.723 1.573 1.573 0 00-.259-.597 1.257 1.257 0 00-.478-.395 1.458 1.458 0 00-.698-.154c-.325 0-.606.09-.841.27a1.648 1.648 0 00-.536.664 1.68 1.68 0 00-.143.463 2.89 2.89 0 00-.039.481c0 .193.013.373.039.54.025.16.073.314.143.462.121.244.297.45.526.616.236.16.526.241.87.241zm6.987-4.411h.918l-1.425 3.997c-.076.205-.159.44-.248.703a9.623 9.623 0 01-.287.77c-.102.264-.22.51-.354.742a2.095 2.095 0 01-.43.559c-.236.212-.463.343-.679.395a2.87 2.87 0 01-.737.086h-.172v-.78c.23 0 .424-.026.583-.077.16-.045.297-.119.412-.221a1.32 1.32 0 00.306-.386c.089-.154.178-.337.267-.549l-2.256-5.24h.956l1.75 4.277 1.396-4.276zm2.245 1.117c.006-.186.009-.372.009-.558v-.56h3.577v4.364h.66v2.273h-.785v-1.56h-3.681v1.56h-.784v-2.273c.255 0 .455-.116.602-.347a1.54 1.54 0 00.21-.549c.051-.244.09-.5.115-.77.032-.296.051-.588.058-.877.012-.295.019-.53.019-.703zm2.773-.395h-1.989c-.007.27-.013.572-.019.906-.007.334-.019.645-.039.934-.006.128-.016.27-.028.424a4.287 4.287 0 01-.067.462 2.72 2.72 0 01-.125.472 1.61 1.61 0 01-.219.443h2.486v-3.64zm4.54-.78c.402 0 .749.064 1.043.193.293.128.538.308.736.54.204.23.354.506.449.827.102.315.153.662.153 1.04 0 .38-.051.73-.153 1.05a2.053 2.053 0 01-1.195 1.348c-.3.13-.65.193-1.052.193s-.752-.064-1.052-.192a2.17 2.17 0 01-.746-.53 2.377 2.377 0 01-.449-.819 3.65 3.65 0 01-.144-1.05c0-.378.048-.725.144-1.04a2.37 2.37 0 01.449-.828 2.11 2.11 0 01.756-.54c.299-.128.653-.192 1.061-.192zm-.019 4.47c.274 0 .51-.05.708-.145.204-.097.369-.228.497-.395.134-.174.23-.373.287-.597.064-.225.096-.47.096-.732 0-.257-.032-.498-.096-.723a1.522 1.522 0 00-.287-.597 1.291 1.291 0 00-.497-.404 1.604 1.604 0 00-.708-.145c-.274 0-.51.048-.708.145a1.394 1.394 0 00-.497.404 1.744 1.744 0 00-.287.597 2.93 2.93 0 00-.086.723c0 .263.029.507.086.732.064.224.16.423.287.597.134.167.3.298.497.395.198.096.434.144.708.144zm3.488-4.412h1.951c.325 0 .602.022.832.067.236.045.433.126.593.241.14.096.248.225.325.385.083.16.124.35.124.569 0 .507-.226.87-.679 1.088.344.077.593.228.746.453.153.224.23.481.23.77-.007.27-.051.491-.134.665a1.376 1.376 0 01-.354.443 1.635 1.635 0 01-.545.289c-.217.07-.462.106-.737.106h-2.352v-5.076zm.832.722v1.445h.698c.159 0 .322-.003.488-.01a1.7 1.7 0 00.44-.086.93.93 0 00.401-.25.618.618 0 00.172-.415c0-.186-.041-.32-.124-.404a.63.63 0 00-.287-.193 1.168 1.168 0 00-.373-.077 7.843 7.843 0 00-.373-.01h-1.042zm0 3.64h1.329c.147 0 .287-.009.421-.028.14-.02.261-.055.363-.106a.722.722 0 00.249-.231.701.701 0 00.105-.366c0-.193-.044-.344-.134-.453a.743.743 0 00-.363-.25 1.733 1.733 0 00-.43-.068 12.47 12.47 0 00-.498-.01l-1.042.01v1.503zm7.716.068a1.4 1.4 0 01-.373.357 2.172 2.172 0 01-.889.318 3.42 3.42 0 01-.44.028c-.236 0-.459-.028-.67-.086a1.706 1.706 0 01-.573-.28 1.469 1.469 0 01-.402-.481 1.448 1.448 0 01-.143-.655c0-.289.051-.53.153-.722.108-.2.251-.36.43-.482.178-.122.382-.205.612-.25.236-.052.484-.077.746-.077h1.482c0-.43-.092-.77-.277-1.021-.185-.257-.497-.392-.937-.405a1.74 1.74 0 00-.708.135.757.757 0 00-.421.443h-.87a1.28 1.28 0 01.268-.587 1.61 1.61 0 01.478-.405c.185-.11.386-.19.602-.24.217-.052.434-.078.651-.078.376 0 .691.064.946.193.262.122.472.285.632.491.159.199.27.443.334.732s.096.613.096.973v2.745h-.679l-.048-.646zm-.956-1.647c-.153 0-.332.004-.536.01-.197 0-.389.02-.574.058a.834.834 0 00-.449.24.7.7 0 00-.163.482.754.754 0 00.316.636c.102.07.217.122.344.154.128.032.259.048.392.048.479 0 .855-.116 1.129-.347.28-.237.424-.58.43-1.03v-.25h-.889zm2.942 2.293v-5.076h.813v2.225h2.525v-2.225h.813v5.076h-.813v-2.129h-2.525v2.129h-.813zm6.229 0h-.794v-5.076h.813v3.891a2.01 2.01 0 01.182-.289 7.31 7.31 0 01.182-.25l2.438-3.352h.804v5.076h-.813V48.61a2.682 2.682 0 01-.172.279 4.334 4.334 0 01-.163.221l-2.477 3.39zm5.534-2.235c.019.225.064.434.134.626.077.186.179.35.306.491.128.142.284.254.469.337.191.078.411.116.66.116.121 0 .245-.01.373-.029a1.69 1.69 0 00.373-.115c.114-.058.216-.132.306-.222a.85.85 0 00.2-.327h.832a1.62 1.62 0 01-.296.635c-.134.18-.297.328-.488.443a2.158 2.158 0 01-.621.26c-.23.052-.463.077-.698.077-.402 0-.753-.064-1.052-.192a2.07 2.07 0 01-.737-.53 2.265 2.265 0 01-.44-.819 3.686 3.686 0 01-.143-1.05c0-.378.051-.725.153-1.04.108-.32.261-.597.459-.828.198-.231.44-.41.727-.54.287-.128.628-.192 1.023-.192.402 0 .749.08 1.042.24.294.162.529.373.708.637a2.4 2.4 0 01.373.838 2.89 2.89 0 01.086 1.01c0 .059-.003.116-.01.174h-3.739zm2.936-.713c-.013-.43-.146-.78-.401-1.05-.255-.269-.597-.404-1.024-.404-.236 0-.443.039-.621.116a1.27 1.27 0 00-.45.317 1.533 1.533 0 00-.287.472c-.07.174-.114.357-.134.55h2.917z" fill="#2F2B43" fill-opacity=".5"/><path fill-rule="evenodd" clip-rule="evenodd" d="M47.783 38.989l-12.11-7.926-12.109 7.926v10.453h24.219V38.99zm-12.11-16.575l19.31 12.64v21.64H16.364v-21.64l19.31-12.64z" fill="#FF4848"/><path fill-rule="evenodd" clip-rule="evenodd" d="M47.897 21.546L27.549 8.581 7.2 21.546V49.75h40.697V21.546zM27.549 0l27.548 17.553V57H0V17.553L27.549 0z" fill="#FF4848"/></svg>